# xmcd
#
# Track frame offsets:
#	150
#	18183
#	35960
#	49847
#	63457
#	79433
#	96584
#	112688
#	128396
#	144921
#	161501
#	177361
#	193999
#	207808
#	223757
#	237798
#	250692
#	268528
#	281900
#
# Disc length: 3942 seconds
#
# Revision: 1
# Processed by: cddbd v1.5.2PL0 Copyright (c) Steve Scherf et al.
# Submitted via: audiograbber 1.83.01
#
DISCID=160f6413
DTITLE=Various Artist - Hott Country 160
DYEAR=2009
DGENRE=Country
TTITLE0=Rascal Flatts - Summer Nights
TTITLE1=Luke Bryan - Do I
TTITLE2=Jarvis Church - So Beautiful
TTITLE3=One More Girl - Misery Loves Company ( Radio Edit )
TTITLE4=Jimmy Wayne - I'll Be That
TTITLE5=One Flew South - Life
TTITLE6=Pat Green - What I'm For
TTITLE7=Kate and Kacey - Dreaming Love
TTITLE8=Cledus T. Judd - Waitin' On Obama
TTITLE9=George Strait - Living For The Night
TTITLE10=Jaydee Bixby - Broken Windows
TTITLE11=Trace Adkins - All I Ask For Anymore
TTITLE12=Craig Moritz - Blame You
TTITLE13=Marlee Scott - Fight With You  ( Radio Mix )
TTITLE14=Adam Gregory - Could I Just Be Me
TTITLE15=Gord Bamford - Drinkin' Buddy
TTITLE16=Rankin Family - Straight Into Love
TTITLE17=Joey and Rory - Pay The Song
TTITLE18=Mary Chapin Carpenter - Passionate Kisses ( 1993 )
EXTD=June 2009
EXTT0=
EXTT1=
EXTT2=
EXTT3=
EXTT4=
EXTT5=
EXTT6=
EXTT7=
EXTT8=
EXTT9=
EXTT10=
EXTT11=
EXTT12=
EXTT13=
EXTT14=
EXTT15=
EXTT16=
EXTT17=
EXTT18=
PLAYORDER=
